<svg xmlns="http://www.w3.org/2000/svg" width="1200" height="800" viewBox="0 0 1200 800">
  <defs>
    <linearGradient id="bg" x1="0" x2="1" y1="0" y2="1">
      <stop offset="0%" stop-color="#67b26f" />
      <stop offset="100%" stop-color="#4ca2cd" />
    </linearGradient>
    <linearGradient id="sun" x1="0" x2="1" y1="0" y2="0">
      <stop offset="0%" stop-color="#ffdd55" />
      <stop offset="100%" stop-color="#ffb347" />
    </linearGradient>
  </defs>
  <rect width="1200" height="800" rx="40" ry="40" fill="url(#bg)" />
  <circle cx="880" cy="170" r="90" fill="url(#sun)" opacity="0.95" />
  <path d="M0 630 Q 270 470 520 590 Q 680 670 840 580 Q 980 510 1200 620 L1200 800 L0 800 Z" fill="#2d6b34" opacity="0.95" />
  <path d="M0 720 Q 230 570 440 650 Q 600 700 760 630 Q 870 590 1200 700 L1200 800 L0 800 Z" fill="#3c8a45" opacity="0.9" />
  <path d="M140 560 Q 210 490 270 520 Q 320 545 430 500 Q 500 470 620 530 Q 700 570 780 520 Q 850 485 930 510 Q 980 530 1040 500 Q 1110 470 1200 540 L1200 800 L0 800 Z" fill="#6abf6d" opacity="0.95" />
  <rect x="180" y="450" width="180" height="120" rx="20" fill="#f4f1d0" />
  <rect x="220" y="350" width="120" height="100" rx="18" fill="#ffffff" />
  <rect x="240" y="410" width="20" height="20" rx="6" fill="#4a6f2c" />
  <rect x="320" y="410" width="20" height="20" rx="6" fill="#4a6f2c" />
  <path d="M240 520 L240 600 L320 600 L320 520 Z" fill="#d28535" />
  <path d="M870 560 L900 520 L930 560 L900 620 Z" fill="#fff" opacity="0.9" />
  <path d="M850 580 L880 540 L910 580 L880 640 Z" fill="#ffd777" opacity="0.95" />
  <text x="250" y="730" font-family="Segoe UI, Arial, sans-serif" font-size="48" fill="#ffffff" font-weight="700">Rural Savings</text>
  <text x="250" y="785" font-family="Segoe UI, Arial, sans-serif" font-size="32" fill="#ffffff" opacity="0.9">Group Management System</text>
</svg>
